<?xml version="1.0" ?><svg viewBox="0 0 64 64" xmlns="http://www.w3.org/2000/svg"><g data-name="Layer 3" id="Layer_3"><path d="M3,27H61a0,0,0,0,1,0,0V61a2,2,0,0,1-2,2H5a2,2,0,0,1-2-2V27A0,0,0,0,1,3,27Z" style="fill:#f2a7b1"/><path d="M18,60A12,12,0,0,1,6,48V27H3V61a2,2,0,0,0,2,2H59a2,2,0,0,0,2-2V60Z" style="fill:#e8859b"/><rect height="12" rx="2" style="fill:#f2a7b1" width="62" x="1" y="15"/><path d="M6,24a2,2,0,0,1-2-2V15H3a2,2,0,0,0-2,2v8a2,2,0,0,0,2,2H61a2,2,0,0,0,2-2V24Z" style="fill:#e8859b"/><rect height="36" style="fill:#f97878" width="10" x="27" y="27"/><path d="M22,39l-6-4-6,4h0a33.8,33.8,0,0,1,9.9-23.9L22,13h7l-2.4,4.107A33.8,33.8,0,0,0,22,34.138Z" style="fill:#f97878"/><path d="M42,39l6-4,6,4h0a33.8,33.8,0,0,0-9.9-23.9L42,13H35l2.4,4.107A33.8,33.8,0,0,1,42,34.138Z" style="fill:#f97878"/><path d="M36,13h6l2.1,2.1a33.851,33.851,0,0,1,4.029,4.875,38.481,38.481,0,0,1-9.906-1.334c-.266-.516-.534-1.031-.828-1.535L36,14.714Z" style="fill:#ed5d5d"/><path d="M53.745,1.012A25.888,25.888,0,0,0,36,7v8a36.211,36.211,0,0,0,21.005.8,4,4,0,0,0,2.922-3.469,12.179,12.179,0,0,0-3.3-10.124A4.163,4.163,0,0,0,53.745,1.012Z" style="fill:#f97878"/><path d="M57.005,12.8A36.211,36.211,0,0,1,36,12v3a36.211,36.211,0,0,0,21.005.8,4,4,0,0,0,2.922-3.469,15.507,15.507,0,0,0,0-2.994A4,4,0,0,1,57.005,12.8Z" style="fill:#ed5d5d"/><path d="M28,13H22l-2.1,2.1a33.851,33.851,0,0,0-4.029,4.875,38.481,38.481,0,0,0,9.906-1.334c.266-.516.534-1.031.828-1.535L28,14.714Z" style="fill:#ed5d5d"/><path d="M10.255,1.012A25.888,25.888,0,0,1,28,7v8a36.211,36.211,0,0,1-21,.8,4,4,0,0,1-2.922-3.469A12.179,12.179,0,0,1,7.378,2.211,4.163,4.163,0,0,1,10.255,1.012Z" style="fill:#f97878"/><path d="M9.995,12.8A4,4,0,0,1,7.073,9.335,12.686,12.686,0,0,1,8.725,1.326a3.854,3.854,0,0,0-1.347.885,12.179,12.179,0,0,0-3.3,10.124A4,4,0,0,0,7,15.8,36.211,36.211,0,0,0,28,15v-2.16A35.188,35.188,0,0,1,9.995,12.8Z" style="fill:#ed5d5d"/><rect height="12" style="fill:#f97878" width="10" x="27" y="15"/><rect height="36" style="fill:#ed5d5d" width="3" x="27" y="27"/><rect height="12" style="fill:#ed5d5d" width="3" x="27" y="15"/><path d="M32,5h0a6,6,0,0,1,6,6v4a2,2,0,0,1-2,2H28a2,2,0,0,1-2-2V11A6,6,0,0,1,32,5Z" style="fill:#f97878"/><path d="M33,14a4,4,0,0,1-4-4V8a5.974,5.974,0,0,1,.534-2.466A6,6,0,0,0,26,11v4a2,2,0,0,0,2,2h8a2,2,0,0,0,2-2V14Z" style="fill:#ed5d5d"/></g></svg>